<svg viewBox="0 0 26 24" xmlns="http://www.w3.org/2000/svg">
<path d="M0 4H4C2.265 5.999 1.503 8.328 1.503 11.001C1.504 13.941 2.648 16.702 4.725 18.779C6.87 20.924 9.688 21.996 12.505 21.996H13V18H12.505C10.712 18 8.918 17.315 7.553 15.95C6.231 14.628 5.503 12.87 5.503 11C5.502 9.431 6.054 8.22 7 7V11H11L10.967 0H0V4ZM13.495 5.996H13V2H13.495C16.313 2 19.13 3.072 21.275 5.217C23.352 7.294 24.496 10.056 24.497 12.995C24.497 15.667 23.735 17.997 22 19.996H26V23.996H15V13H19V16.996C19.946 15.776 20.497 14.565 20.497 12.996C20.497 11.126 19.768 9.367 18.447 8.046C17.082 6.68 15.288 5.995 13.495 5.996Z" fill="black"/>
</svg>
